<?xml version="1.0" encoding="UTF-8" standalone="no"?>
<!-- Created with Inkscape (http://www.inkscape.org/) -->

<svg
   width="49.152927mm"
   height="49.152927mm"
   viewBox="0 0 49.152927 49.152927"
   version="1.1"
   id="svg1"
   xml:space="preserve"
   inkscape:version="1.3.2 (091e20e, 2023-11-25, custom)"
   sodipodi:docname="info_icon.svg"
   xmlns:inkscape="http://www.inkscape.org/namespaces/inkscape"
   xmlns:sodipodi="http://sodipodi.sourceforge.net/DTD/sodipodi-0.dtd"
   xmlns="http://www.w3.org/2000/svg"
   xmlns:svg="http://www.w3.org/2000/svg"><sodipodi:namedview
     id="namedview1"
     pagecolor="#ffffff"
     bordercolor="#000000"
     borderopacity="0.25"
     inkscape:showpageshadow="2"
     inkscape:pageopacity="0.0"
     inkscape:pagecheckerboard="0"
     inkscape:deskcolor="#d1d1d1"
     inkscape:document-units="mm"
     inkscape:zoom="4.0373457"
     inkscape:cx="132.63665"
     inkscape:cy="105.39103"
     inkscape:window-width="2256"
     inkscape:window-height="1410"
     inkscape:window-x="4047"
     inkscape:window-y="2149"
     inkscape:window-maximized="1"
     inkscape:current-layer="layer1" /><defs
     id="defs1" /><g
     inkscape:label="Layer 1"
     inkscape:groupmode="layer"
     id="layer1"
     transform="translate(-75.418607,-125.22444)"><circle
       style="fill:#4d4d4d;stroke:#ffffff;stroke-width:0.257043"
       id="path4"
       cx="99.995071"
       cy="149.8009"
       r="24.447943" /><path
       style="fill:#ffffff;stroke-width:1.21"
       d="m 106.06906,138.51201 c 2.26217,-2.07312 1.59735,-5.50345 -1.27873,-6.5981 -1.68878,-0.64275 -3.54873,-0.0121 -4.618,1.56679 -1.737673,2.56519 0.17029,6.08277 3.29932,6.08277 1.19275,0 1.65365,-0.18657 2.59741,-1.05146 z"
       id="path3" /><path
       style="fill:#ffffff;stroke-width:1.21"
       d="m 99.236728,167.25482 c 1.527862,-0.7901 2.861042,-2.06884 4.388332,-4.20915 1.29485,-1.81454 1.55517,-2.69099 0.79933,-2.69099 -0.13742,0 -0.92821,0.87351 -1.7573,1.94113 -1.14881,1.47933 -1.67434,1.91726 -2.20908,1.84084 -0.38591,-0.0552 -0.742921,-0.31715 -0.793354,-0.58222 -0.05046,-0.26505 1.262344,-5.19929 2.917324,-10.96499 l 3.00901,-10.48307 -0.83964,0.009 c -1.30178,0.0133 -9.434369,1.40757 -9.883763,1.69456 -0.688042,0.43938 -0.438879,0.85806 0.510632,0.85806 0.501109,0 1.168812,0.28508 1.484368,0.63377 0.727996,0.80442 0.626356,1.31559 -2.18935,11.0117 -1.169695,4.02793 -2.12672,7.67273 -2.12672,8.09959 0,1.23642 0.915982,2.67466 2.021631,3.17432 1.176556,0.5317 3.28872,0.38145 4.66858,-0.3321 z"
       id="path2" /></g></svg>
