<?xml version="1.0" encoding="UTF-8" standalone="no"?>
<!-- Created with Inkscape (http://www.inkscape.org/) -->

<svg
   width="71.592133mm"
   height="113.94646mm"
   viewBox="0 0 71.592132 113.94646"
   version="1.1"
   id="svg1"
   xml:space="preserve"
   inkscape:version="1.3.2 (091e20e, 2023-11-25, custom)"
   sodipodi:docname="legend.svg"
   xmlns:inkscape="http://www.inkscape.org/namespaces/inkscape"
   xmlns:sodipodi="http://sodipodi.sourceforge.net/DTD/sodipodi-0.dtd"
   xmlns="http://www.w3.org/2000/svg"
   xmlns:svg="http://www.w3.org/2000/svg"><sodipodi:namedview
     id="namedview1"
     pagecolor="#ffffff"
     bordercolor="#000000"
     borderopacity="0.25"
     inkscape:showpageshadow="2"
     inkscape:pageopacity="0.0"
     inkscape:pagecheckerboard="0"
     inkscape:deskcolor="#d1d1d1"
     inkscape:document-units="mm"
     inkscape:zoom="2.8548346"
     inkscape:cx="67.254334"
     inkscape:cy="221.90427"
     inkscape:window-width="5160"
     inkscape:window-height="2066"
     inkscape:window-x="-11"
     inkscape:window-y="-11"
     inkscape:window-maximized="1"
     inkscape:current-layer="layer1" /><defs
     id="defs1" /><g
     inkscape:label="Layer 1"
     inkscape:groupmode="layer"
     id="layer1"
     transform="translate(-118.67793,-97.96474)"><rect
       style="fill:#ffffff;fill-opacity:1;stroke:#000000;stroke-width:0.600001;stroke-dasharray:none;stroke-opacity:1"
       id="rect5"
       width="70.992134"
       height="113.34646"
       x="118.97793"
       y="98.26474"
       rx="5.931459"
       ry="5.931459" /><rect
       style="fill:#e4f8fe;fill-opacity:1;stroke:#333333;stroke-width:0.6;stroke-dasharray:none;stroke-opacity:1"
       id="rect1"
       width="10.616505"
       height="10.616505"
       x="121.17233"
       y="129.49515"
       rx="1.8349514"
       ry="1.8349514" /><text
       xml:space="preserve"
       style="font-size:8.64014px;fill:#000000;stroke:none;stroke-width:1.63279;stroke-dasharray:none;stroke-opacity:1"
       x="122.10736"
       y="106.86816"
       id="text1"><tspan
         sodipodi:role="line"
         id="tspan1"
         style="font-weight:bold;fill:#000000;stroke:none;stroke-width:1.63279"
         x="122.10736"
         y="106.86816">Legend</tspan></text><text
       xml:space="preserve"
       style="font-size:5.50362px;fill:#000000;stroke:none;stroke-width:1.04006;stroke-dasharray:none;stroke-opacity:1"
       x="135.0027"
       y="137.554"
       id="text2"><tspan
         sodipodi:role="line"
         id="tspan2"
         style="font-weight:normal;fill:#000000;stroke:none;stroke-width:1.04006"
         x="135.0027"
         y="137.554">School Catchment</tspan></text><rect
       style="fill:#d0666d;fill-opacity:1;stroke:#d0666d;stroke-width:0.6;stroke-dasharray:none;stroke-opacity:1"
       id="rect2"
       width="10.616505"
       height="10.616505"
       x="121.17233"
       y="113.05943"
       rx="1.8349514"
       ry="1.8349514" /><text
       xml:space="preserve"
       style="font-size:5.50362px;fill:#000000;stroke:none;stroke-width:1.04006;stroke-dasharray:none;stroke-opacity:1"
       x="135.0027"
       y="121.11827"
       id="text3"><tspan
         sodipodi:role="line"
         id="tspan3"
         style="font-weight:normal;fill:#000000;stroke:none;stroke-width:1.04006"
         x="135.0027"
         y="121.11827">SA2</tspan></text><text
       xml:space="preserve"
       style="font-size:5.50362px;fill:#000000;stroke:none;stroke-width:1.04006;stroke-dasharray:none;stroke-opacity:1"
       x="135.0027"
       y="155.33839"
       id="text4"><tspan
         sodipodi:role="line"
         id="tspan4"
         style="font-weight:normal;fill:#000000;stroke:none;stroke-width:1.04006"
         x="135.0027"
         y="155.33839">School in SA2</tspan></text><text
       xml:space="preserve"
       style="font-size:5.50362px;fill:#000000;stroke:none;stroke-width:1.04006;stroke-dasharray:none;stroke-opacity:1"
       x="135.0027"
       y="171.06654"
       id="text5"><tspan
         sodipodi:role="line"
         id="tspan5"
         style="font-weight:normal;fill:#000000;stroke:none;stroke-width:1.04006"
         x="135.0027"
         y="171.06654">School outside SA2</tspan></text><g
       id="layer1-8"
       transform="matrix(0.26458333,0,0,0.26458333,98.841417,131.93217)"><path
         style="fill:#c06c52;fill-opacity:1;stroke:#000000;stroke-width:1.32292;stroke-dasharray:none"
         d="m 121.46083,134.62641 v 21.12067 h 8.93486 v -17.59892 c 0,-1.95108 -1.57067,-3.52175 -3.52175,-3.52175 z"
         id="path3" /><path
         id="rect2-1"
         style="fill:#c06c52;fill-opacity:1;stroke:#000000;stroke-width:1.32292;stroke-dasharray:none"
         d="m 105.00548,119.22683 -13.813113,8.19692 v 28.9295 h 9.457303 c -0.031,-0.18557 -0.0481,-0.37593 -0.0481,-0.56999 v -5.52318 c 0,-1.99122 1.69514,-3.5941 3.8008,-3.5941 h 1.53014 c 2.10567,0 3.8008,1.60288 3.8008,3.5941 v 5.52318 c 0,0.19406 -0.0171,0.38442 -0.0481,0.56999 h 9.68882 v -28.9295 z m 0.185,9.50433 a 5.6997614,5.6997614 0 0 1 5.69991,5.69991 5.6997614,5.6997614 0 0 1 -5.69991,5.69939 5.6997614,5.6997614 0 0 1 -5.699395,-5.69939 5.6997614,5.6997614 0 0 1 5.699395,-5.69991 z" /><path
         style="fill:#c06c52;fill-opacity:1;stroke:#000000;stroke-width:1.32292;stroke-dasharray:none"
         d="m 89.054527,134.62641 v 21.12067 h -8.93486 v -17.59892 c 0,-1.95108 1.57067,-3.52175 3.52175,-3.52175 z"
         id="path4-8" /></g><g
       id="layer1-5"
       transform="matrix(0.26458333,0,0,0.26458333,98.512586,115.14369)"><path
         style="fill:#3b893b;fill-opacity:1;stroke:#000000;stroke-width:1.32292;stroke-dasharray:none"
         d="m 121.46083,134.62641 v 21.12067 h 8.93486 v -17.59892 c 0,-1.95108 -1.57067,-3.52175 -3.52175,-3.52175 z"
         id="path3-4" /><path
         id="rect2-4"
         style="fill:#3b893b;fill-opacity:1;stroke:#000000;stroke-width:1.32292;stroke-dasharray:none"
         d="m 105.00548,119.22683 -13.813113,8.19692 v 28.9295 h 9.457303 c -0.031,-0.18557 -0.0481,-0.37593 -0.0481,-0.56999 v -5.52318 c 0,-1.99122 1.69514,-3.5941 3.8008,-3.5941 h 1.53014 c 2.10567,0 3.8008,1.60288 3.8008,3.5941 v 5.52318 c 0,0.19406 -0.0171,0.38442 -0.0481,0.56999 h 9.68882 v -28.9295 z m 0.185,9.50433 a 5.6997614,5.6997614 0 0 1 5.69991,5.69991 5.6997614,5.6997614 0 0 1 -5.69991,5.69939 5.6997614,5.6997614 0 0 1 -5.699395,-5.69939 5.6997614,5.6997614 0 0 1 5.699395,-5.69991 z" /><path
         style="fill:#3b893b;fill-opacity:1;stroke:#000000;stroke-width:1.32292;stroke-dasharray:none"
         d="m 89.054527,134.62641 v 21.12067 h -8.93486 v -17.59892 c 0,-1.95108 1.57067,-3.52175 3.52175,-3.52175 z"
         id="path4-0" /></g><g
       id="layer1-7"
       transform="matrix(0.38478546,0,0,0.38478546,88.393377,132.44761)"
       style="fill:#c279e5;fill-opacity:1"><path
         id="rect5-6"
         style="fill:#c279e5;fill-opacity:1;stroke:#000000;stroke-width:1.32292"
         d="m 101.47908,122.48769 c -0.49493,-0.0268 -0.91325,0.32278 -1.13171,0.80874 l -0.988573,2.19883 a 12.741169,12.741169 0 0 0 -6.890531,2.02675 l -2.148706,-1.56683 c -0.492013,-0.35877 -1.122712,-0.43388 -1.554427,-0.004 l -2.354895,2.34146 c -0.431716,0.42943 -0.359734,1.06101 -0.0036,1.55494 l 1.732194,2.40296 a 12.741169,12.741169 0 0 0 -1.077971,2.63963 12.741169,12.741169 0 0 0 -0.42633,3.75222 l -2.415357,1.07022 c -0.556707,0.24672 -0.936353,0.75554 -0.780314,1.34411 l 0.830957,3.13521 a 6.7334681,6.7334681 0 0 1 5.567619,-3.01842 6.7334681,6.7334681 0 0 1 1.614889,0.19688 l 0.885734,-0.92862 a 7.3756738,7.3756738 0 0 1 -0.0987,-4.14962 7.3756738,7.3756738 0 0 1 9.011851,-5.19762 l 1.27382,-1.33583 a 6.7334681,6.7334681 0 0 1 -0.10438,-1.1219 6.7334681,6.7334681 0 0 1 2.5063,-5.23534 c -0.009,-0.003 -0.0165,-0.008 -0.0258,-0.0103 l -3.20549,-0.86817 c -0.0735,-0.0199 -0.14582,-0.0313 -0.21653,-0.0351 z m 12.91343,10.37353 a 6.7334681,6.7334681 0 0 1 -5.23844,2.50889 6.7334681,6.7334681 0 0 1 -2.13217,-0.3607 l -0.7152,0.74983 a 7.3756738,7.3756738 0 0 1 0.17104,4.38887 7.3756738,7.3756738 0 0 1 -9.046986,5.1909 7.3756738,7.3756738 0 0 1 -0.189652,-0.0718 l -0.890902,0.93431 a 6.7334681,6.7334681 0 0 1 0.220658,1.70532 6.7334681,6.7334681 0 0 1 -2.933671,5.51491 l 3.053044,0.82631 c 0.587735,0.15921 1.09856,-0.21821 1.348238,-0.7736 l 1.141528,-2.53834 a 12.741169,12.741169 0 0 0 6.132443,-1.48002 l 2.32389,1.69551 c 0.49201,0.35876 1.12272,0.43298 1.55443,0.004 l 2.35438,-2.34145 c 0.4317,-0.42941 0.36075,-1.06102 0.005,-1.55495 l -1.52136,-2.10943 a 12.741169,12.741169 0 0 0 1.62884,-3.59823 12.741169,12.741169 0 0 0 0.43305,-2.91972 l 2.42569,-1.07487 c 0.55671,-0.2467 0.93739,-0.75551 0.78135,-1.3441 l -0.85111,-3.21014 c -0.0135,-0.0508 -0.0342,-0.0953 -0.0537,-0.14108 z" /><path
         id="path10"
         style="fill:#c279e5;fill-opacity:1;stroke:#000000;stroke-width:1.32292;stroke-dasharray:none"
         d="m 109.05588,123.58116 a 4.9344635,4.9344635 0 0 0 -4.93458,4.93407 4.9344635,4.9344635 0 0 0 0.43253,2.01383 l -12.642119,12.93461 a 4.9344635,4.9344635 0 0 0 -2.220536,-0.52916 4.9344635,4.9344635 0 0 0 -4.934582,4.93458 4.9344635,4.9344635 0 0 0 0.278019,1.63142 c 1.465683,-1.5044 3.262821,-3.2428 3.496944,-3.30781 0.397589,-0.1104 2.202603,0.35581 2.497005,0.64493 0.294401,0.28912 0.793584,2.08508 0.690397,2.4846 -0.0586,0.22689 -1.668191,1.9132 -3.12539,3.35587 a 4.9344635,4.9344635 0 0 0 1.097607,0.12505 4.9344635,4.9344635 0 0 0 4.934583,-4.93406 4.9344635,4.9344635 0 0 0 -0.400493,-1.94459 l 12.681915,-12.97491 a 4.9344635,4.9344635 0 0 0 2.1487,0.50022 4.9344635,4.9344635 0 0 0 4.93458,-4.93458 4.9344635,4.9344635 0 0 0 -0.27801,-1.63142 c -1.46569,1.50439 -3.26283,3.24279 -3.49695,3.3078 -0.39759,0.1104 -2.2026,-0.3558 -2.497,-0.64492 -0.2944,-0.28912 -0.79359,-2.08508 -0.6904,-2.4846 0.0586,-0.22689 1.66819,-1.9132 3.12539,-3.35587 a 4.9344635,4.9344635 0 0 0 -1.09761,-0.12506 z" /></g><g
       id="layer1-6"
       transform="matrix(0.39051159,0,0,0.39051159,87.782108,148.12361)"
       style="fill:#5edeba;fill-opacity:1"><path
         id="rect5-8"
         style="fill:#5edeba;fill-opacity:1;stroke:#000000;stroke-width:1.32292"
         d="m 101.47908,122.48769 c -0.49493,-0.0268 -0.91325,0.32278 -1.13171,0.80874 l -0.988573,2.19883 a 12.741169,12.741169 0 0 0 -6.890531,2.02675 l -2.148706,-1.56683 c -0.492013,-0.35877 -1.122712,-0.43388 -1.554427,-0.004 l -2.354895,2.34146 c -0.431716,0.42943 -0.359734,1.06101 -0.0036,1.55494 l 1.732194,2.40296 a 12.741169,12.741169 0 0 0 -1.077971,2.63963 12.741169,12.741169 0 0 0 -0.42633,3.75222 l -2.415357,1.07022 c -0.556707,0.24672 -0.936353,0.75554 -0.780314,1.34411 l 0.830957,3.13521 a 6.7334681,6.7334681 0 0 1 5.567619,-3.01842 6.7334681,6.7334681 0 0 1 1.614889,0.19688 l 0.885734,-0.92862 a 7.3756738,7.3756738 0 0 1 -0.0987,-4.14962 7.3756738,7.3756738 0 0 1 9.011851,-5.19762 l 1.27382,-1.33583 a 6.7334681,6.7334681 0 0 1 -0.10438,-1.1219 6.7334681,6.7334681 0 0 1 2.5063,-5.23534 c -0.009,-0.003 -0.0165,-0.008 -0.0258,-0.0103 l -3.20549,-0.86817 c -0.0735,-0.0199 -0.14582,-0.0313 -0.21653,-0.0351 z m 12.91343,10.37353 a 6.7334681,6.7334681 0 0 1 -5.23844,2.50889 6.7334681,6.7334681 0 0 1 -2.13217,-0.3607 l -0.7152,0.74983 a 7.3756738,7.3756738 0 0 1 0.17104,4.38887 7.3756738,7.3756738 0 0 1 -9.046986,5.1909 7.3756738,7.3756738 0 0 1 -0.189652,-0.0718 l -0.890902,0.93431 a 6.7334681,6.7334681 0 0 1 0.220658,1.70532 6.7334681,6.7334681 0 0 1 -2.933671,5.51491 l 3.053044,0.82631 c 0.587735,0.15921 1.09856,-0.21821 1.348238,-0.7736 l 1.141528,-2.53834 a 12.741169,12.741169 0 0 0 6.132443,-1.48002 l 2.32389,1.69551 c 0.49201,0.35876 1.12272,0.43298 1.55443,0.004 l 2.35438,-2.34145 c 0.4317,-0.42941 0.36075,-1.06102 0.005,-1.55495 l -1.52136,-2.10943 a 12.741169,12.741169 0 0 0 1.62884,-3.59823 12.741169,12.741169 0 0 0 0.43305,-2.91972 l 2.42569,-1.07487 c 0.55671,-0.2467 0.93739,-0.75551 0.78135,-1.3441 l -0.85111,-3.21014 c -0.0135,-0.0508 -0.0342,-0.0953 -0.0537,-0.14108 z" /><path
         id="path10-7"
         style="fill:#5edeba;fill-opacity:1;stroke:#000000;stroke-width:1.32292;stroke-dasharray:none"
         d="m 109.05588,123.58116 a 4.9344635,4.9344635 0 0 0 -4.93458,4.93407 4.9344635,4.9344635 0 0 0 0.43253,2.01383 l -12.642119,12.93461 a 4.9344635,4.9344635 0 0 0 -2.220536,-0.52916 4.9344635,4.9344635 0 0 0 -4.934582,4.93458 4.9344635,4.9344635 0 0 0 0.278019,1.63142 c 1.465683,-1.5044 3.262821,-3.2428 3.496944,-3.30781 0.397589,-0.1104 2.202603,0.35581 2.497005,0.64493 0.294401,0.28912 0.793584,2.08508 0.690397,2.4846 -0.0586,0.22689 -1.668191,1.9132 -3.12539,3.35587 a 4.9344635,4.9344635 0 0 0 1.097607,0.12505 4.9344635,4.9344635 0 0 0 4.934583,-4.93406 4.9344635,4.9344635 0 0 0 -0.400493,-1.94459 l 12.681915,-12.97491 a 4.9344635,4.9344635 0 0 0 2.1487,0.50022 4.9344635,4.9344635 0 0 0 4.93458,-4.93458 4.9344635,4.9344635 0 0 0 -0.27801,-1.63142 c -1.46569,1.50439 -3.26283,3.24279 -3.49695,3.3078 -0.39759,0.1104 -2.2026,-0.3558 -2.497,-0.64492 -0.2944,-0.28912 -0.79359,-2.08508 -0.6904,-2.4846 0.0586,-0.22689 1.66819,-1.9132 3.12539,-3.35587 a 4.9344635,4.9344635 0 0 0 -1.09761,-0.12506 z" /></g><text
       xml:space="preserve"
       style="font-size:5.50362px;fill:#000000;stroke:none;stroke-width:1.04006;stroke-dasharray:none;stroke-opacity:1"
       x="135.0027"
       y="188.14677"
       id="text6"><tspan
         sodipodi:role="line"
         id="tspan6"
         style="font-weight:normal;fill:#000000;stroke:none;stroke-width:1.04006"
         x="135.0027"
         y="188.14677">Project (New)</tspan></text><text
       xml:space="preserve"
       style="font-size:5.50362px;fill:#000000;stroke:none;stroke-width:1.04006;stroke-dasharray:none;stroke-opacity:1"
       x="135.0027"
       y="203.87492"
       id="text7"><tspan
         sodipodi:role="line"
         id="tspan7"
         style="font-weight:normal;fill:#000000;stroke:none;stroke-width:1.04006"
         x="135.0027"
         y="203.87492">Project (Upgrade)</tspan></text></g></svg>
