<?xml version="1.0" encoding="UTF-8" standalone="no"?>
<!-- Created with Inkscape (http://www.inkscape.org/) -->

<svg
   viewBox="0 0 33.246548 33.118515"
   version="1.1"
   id="project_new"
   xml:space="preserve"
   xmlns="http://www.w3.org/2000/svg"
   xmlns:svg="http://www.w3.org/2000/svg"><defs
     id="defs1" /><g
     id="layer1"
     transform="translate(-82.744976,-121.82476)"
     style="fill:#c279e5;fill-opacity:1"><path
       id="rect5"
       style="fill:#c279e5;fill-opacity:1;stroke:#000000;stroke-width:1.32292"
       d="m 101.47908,122.48769 c -0.49493,-0.0268 -0.91325,0.32278 -1.13171,0.80874 l -0.988573,2.19883 a 12.741169,12.741169 0 0 0 -6.890531,2.02675 l -2.148706,-1.56683 c -0.492013,-0.35877 -1.122712,-0.43388 -1.554427,-0.004 l -2.354895,2.34146 c -0.431716,0.42943 -0.359734,1.06101 -0.0036,1.55494 l 1.732194,2.40296 a 12.741169,12.741169 0 0 0 -1.077971,2.63963 12.741169,12.741169 0 0 0 -0.42633,3.75222 l -2.415357,1.07022 c -0.556707,0.24672 -0.936353,0.75554 -0.780314,1.34411 l 0.830957,3.13521 a 6.7334681,6.7334681 0 0 1 5.567619,-3.01842 6.7334681,6.7334681 0 0 1 1.614889,0.19688 l 0.885734,-0.92862 a 7.3756738,7.3756738 0 0 1 -0.0987,-4.14962 7.3756738,7.3756738 0 0 1 9.011851,-5.19762 l 1.27382,-1.33583 a 6.7334681,6.7334681 0 0 1 -0.10438,-1.1219 6.7334681,6.7334681 0 0 1 2.5063,-5.23534 c -0.009,-0.003 -0.0165,-0.008 -0.0258,-0.0103 l -3.20549,-0.86817 c -0.0735,-0.0199 -0.14582,-0.0313 -0.21653,-0.0351 z m 12.91343,10.37353 a 6.7334681,6.7334681 0 0 1 -5.23844,2.50889 6.7334681,6.7334681 0 0 1 -2.13217,-0.3607 l -0.7152,0.74983 a 7.3756738,7.3756738 0 0 1 0.17104,4.38887 7.3756738,7.3756738 0 0 1 -9.046986,5.1909 7.3756738,7.3756738 0 0 1 -0.189652,-0.0718 l -0.890902,0.93431 a 6.7334681,6.7334681 0 0 1 0.220658,1.70532 6.7334681,6.7334681 0 0 1 -2.933671,5.51491 l 3.053044,0.82631 c 0.587735,0.15921 1.09856,-0.21821 1.348238,-0.7736 l 1.141528,-2.53834 a 12.741169,12.741169 0 0 0 6.132443,-1.48002 l 2.32389,1.69551 c 0.49201,0.35876 1.12272,0.43298 1.55443,0.004 l 2.35438,-2.34145 c 0.4317,-0.42941 0.36075,-1.06102 0.005,-1.55495 l -1.52136,-2.10943 a 12.741169,12.741169 0 0 0 1.62884,-3.59823 12.741169,12.741169 0 0 0 0.43305,-2.91972 l 2.42569,-1.07487 c 0.55671,-0.2467 0.93739,-0.75551 0.78135,-1.3441 l -0.85111,-3.21014 c -0.0135,-0.0508 -0.0342,-0.0953 -0.0537,-0.14108 z" /><path
       id="path10"
       style="fill:#c279e5;fill-opacity:1;stroke:#000000;stroke-width:1.32292;stroke-dasharray:none"
       d="m 109.05588,123.58116 a 4.9344635,4.9344635 0 0 0 -4.93458,4.93407 4.9344635,4.9344635 0 0 0 0.43253,2.01383 l -12.642119,12.93461 a 4.9344635,4.9344635 0 0 0 -2.220536,-0.52916 4.9344635,4.9344635 0 0 0 -4.934582,4.93458 4.9344635,4.9344635 0 0 0 0.278019,1.63142 c 1.465683,-1.5044 3.262821,-3.2428 3.496944,-3.30781 0.397589,-0.1104 2.202603,0.35581 2.497005,0.64493 0.294401,0.28912 0.793584,2.08508 0.690397,2.4846 -0.0586,0.22689 -1.668191,1.9132 -3.12539,3.35587 a 4.9344635,4.9344635 0 0 0 1.097607,0.12505 4.9344635,4.9344635 0 0 0 4.934583,-4.93406 4.9344635,4.9344635 0 0 0 -0.400493,-1.94459 l 12.681915,-12.97491 a 4.9344635,4.9344635 0 0 0 2.1487,0.50022 4.9344635,4.9344635 0 0 0 4.93458,-4.93458 4.9344635,4.9344635 0 0 0 -0.27801,-1.63142 c -1.46569,1.50439 -3.26283,3.24279 -3.49695,3.3078 -0.39759,0.1104 -2.2026,-0.3558 -2.497,-0.64492 -0.2944,-0.28912 -0.79359,-2.08508 -0.6904,-2.4846 0.0586,-0.22689 1.66819,-1.9132 3.12539,-3.35587 a 4.9344635,4.9344635 0 0 0 -1.09761,-0.12506 z" /></g></svg>
