<?xml version="1.0" encoding="UTF-8" standalone="no"?>
<!-- Created with Inkscape (http://www.inkscape.org/) -->

<svg
   viewBox="0 0 51.598942 38.553143"
   version="1.1"
   id="out_school"
   xml:space="preserve"
   xmlns="http://www.w3.org/2000/svg"
   xmlns:svg="http://www.w3.org/2000/svg"><defs
     id="defs1" /><g
     id="layer1"
     transform="translate(-79.458207,-118.46157)"><path
       style="fill:#c06c52;fill-opacity:1;stroke:#000000;stroke-width:1.32292;stroke-dasharray:none"
       d="m 121.46083,134.62641 v 21.12067 h 8.93486 v -17.59892 c 0,-1.95108 -1.57067,-3.52175 -3.52175,-3.52175 z"
       id="path3" /><path
       id="rect2"
       style="fill:#c06c52;fill-opacity:1;stroke:#000000;stroke-width:1.32292;stroke-dasharray:none"
       d="m 105.00548,119.22683 -13.813113,8.19692 v 28.9295 h 9.457303 c -0.031,-0.18557 -0.0481,-0.37593 -0.0481,-0.56999 v -5.52318 c 0,-1.99122 1.69514,-3.5941 3.8008,-3.5941 h 1.53014 c 2.10567,0 3.8008,1.60288 3.8008,3.5941 v 5.52318 c 0,0.19406 -0.0171,0.38442 -0.0481,0.56999 h 9.68882 v -28.9295 z m 0.185,9.50433 a 5.6997614,5.6997614 0 0 1 5.69991,5.69991 5.6997614,5.6997614 0 0 1 -5.69991,5.69939 5.6997614,5.6997614 0 0 1 -5.699395,-5.69939 5.6997614,5.6997614 0 0 1 5.699395,-5.69991 z" /><path
       style="fill:#c06c52;fill-opacity:1;stroke:#000000;stroke-width:1.32292;stroke-dasharray:none"
       d="m 89.054527,134.62641 v 21.12067 h -8.93486 v -17.59892 c 0,-1.95108 1.57067,-3.52175 3.52175,-3.52175 z"
       id="path4" /></g></svg>
